<svg xmlns="http://www.w3.org/2000/svg" height="800" width="1200" viewBox="-30.0048 -29.035 260.0416 174.21"><path d="M37.466 71.202L22.771 37.523l.002 16.943c0 2.404 1.963 4.354 4.389 4.354h1.351l.003 12.382-28.501-.003L.012 58.82h1.354c2.426 0 4.389-1.949 4.389-4.354V16.904c0-2.404-1.963-4.354-4.389-4.354H.012V.006L29.526.001l14.696 33.505-.003-16.602c0-2.404-1.966-4.354-4.39-4.354h-1.356L38.479.001l28.044.005v12.543h-1.356c-2.423 0-4.389 1.95-4.389 4.354l-.003 54.295-23.309.004m60.799 0l-28.047.005.003-12.389h1.352c2.423 0 4.389-1.95 4.389-4.354v-37.56c0-2.404-1.966-4.354-4.389-4.354h-1.359L70.219.001h31.147l.002 12.549h-1.356c-2.423 0-4.389 1.95-4.389 4.354v37.56c0 2.404 1.966 4.354 4.389 4.354h1.356l.006 12.384zm34.84 0l-28.047.005.003-12.389h1.351c2.424 0 4.39-1.95 4.39-4.354v-37.56c0-2.404-1.966-4.354-4.39-4.354h-1.358l.005-12.549h31.146l.003 12.549h-1.356c-2.426 0-4.389 1.95-4.389 4.354v37.56c0 2.404 1.963 4.354 4.389 4.354h1.356l.003 12.384zm21.268.008V58.82h1.354c2.423 0 4.389-1.949 4.389-4.354l-.003-36.867c0-2.077-1.294-3.764-2.878-3.764-1.587 0-2.861 1.687-2.861 3.764v11.577h-14.495L139.881 0l60.133.005.003 29.173h-14.49V17.602c0-2.077-1.272-3.763-2.859-3.763-1.586 0-2.881 1.687-2.881 3.763V54.47c0 2.404 1.963 4.354 4.39 4.354h1.351v12.39z" fill="#0060AF" clip-rule="evenodd" fill-rule="evenodd"/><path d="M.001 92.412c0-6.549 5.31-11.855 11.856-11.855h176.321c6.547 0 11.854 5.307 11.854 11.855v11.872c0 6.55-5.307 11.856-11.854 11.856H11.856C5.31 116.14 0 110.833 0 104.284V92.412" fill="#F68B1E"/><path d="M15.712 105.129l.328 2.137a8.865 8.865 0 01-1.822.216c-.877 0-1.56-.138-2.042-.419-.482-.276-.823-.642-1.021-1.097-.198-.455-.295-1.408-.295-2.864v-8.236H9.068v-1.874h1.792v-3.538L13.286 88v4.992h2.426v1.874h-2.426v8.374c0 .693.041 1.138.127 1.338.084.197.225.354.415.471.192.116.468.176.823.176.27-.001.622-.034 1.061-.096" fill="#231F20"/><path d="M22.578 98.777h7.965c-.108-1.205-.414-2.104-.915-2.707-.772-.932-1.768-1.4-2.995-1.4-1.11 0-2.044.371-2.799 1.118-.758.745-1.175 1.741-1.256 2.989m7.938 3.883l2.507.33c-.393 1.459-1.121 2.591-2.188 3.397-1.067.805-2.426 1.205-4.083 1.205-2.084 0-3.739-.645-4.96-1.928s-1.833-3.084-1.833-5.401c0-2.401.617-4.264 1.852-5.591 1.234-1.321 2.837-1.984 4.808-1.984 1.909 0 3.463.649 4.67 1.946 1.21 1.297 1.814 3.125 1.814 5.48 0 .146-.002.357-.013.645H22.44c.092 1.567.533 2.767 1.33 3.601.796.831 1.792 1.248 2.983 1.248.888 0 1.644-.232 2.271-.701.626-.468 1.124-1.218 1.492-2.247z" fill="#231F20" clip-rule="evenodd" fill-rule="evenodd"/><path d="M48.115 102.057l2.372.33c-.263 1.63-.926 2.905-1.998 3.825-1.069.921-2.383 1.381-3.942 1.381-1.955 0-3.522-.636-4.711-1.914-1.186-1.275-1.779-3.103-1.779-5.482 0-1.541.255-2.889.767-4.042.512-1.156 1.289-2.021 2.334-2.597a6.904 6.904 0 013.406-.869c1.551 0 2.821.393 3.804 1.178.988.785 1.619 1.897 1.897 3.341l-2.345.357c-.225-.958-.619-1.679-1.19-2.166-.571-.484-1.26-.726-2.069-.726-1.221 0-2.214.436-2.98 1.311-.761.872-1.146 2.255-1.146 4.143 0 1.919.371 3.311 1.104 4.183.737.866 1.698 1.303 2.881 1.303.95 0 1.747-.293 2.386-.872.635-.584 1.038-1.477 1.209-2.684m7.11 5.233V87.565h2.426v7.094c1.123-1.313 2.545-1.971 4.256-1.971 1.059 0 1.974.208 2.748.623.777.419 1.335.996 1.671 1.729.335.736.5 1.804.5 3.2v9.049H64.4v-9.041c0-1.21-.26-2.09-.782-2.642-.52-.547-1.259-.826-2.212-.826-.712 0-1.384.187-2.012.558-.628.371-1.077.877-1.346 1.514-.265.636-.397 1.514-.397 2.632v7.806h-2.426m18.013 0V92.994h2.174v2.028c1.051-1.555 2.566-2.334 4.549-2.334.857 0 1.648.154 2.371.463.724.312 1.259.715 1.619 1.219.357.5.612 1.096.753 1.786.092.45.136 1.235.136 2.354v8.78h-2.427v-8.688c0-.985-.095-1.725-.281-2.212a2.314 2.314 0 00-.999-1.17c-.479-.292-1.04-.438-1.687-.438-1.029 0-1.914.327-2.664.982-.745.655-1.118 1.896-1.118 3.726v7.801h-2.426" fill="#231F20"/><path d="M92.821 100.147c0 1.825.4 3.192 1.202 4.099.796.91 1.806 1.365 3.021 1.365 1.205 0 2.206-.458 3.008-1.37.802-.912 1.199-2.304 1.199-4.175 0-1.76-.4-3.098-1.205-4.005-.807-.909-1.809-1.364-3.002-1.364-1.216 0-2.226.452-3.021 1.356-.802.905-1.202 2.269-1.202 4.094m-2.481-.005c0-2.643.733-4.597 2.207-5.869 1.229-1.057 2.727-1.584 4.497-1.584 1.966 0 3.571.645 4.816 1.928 1.248 1.283 1.873 3.057 1.873 5.322 0 1.836-.278 3.279-.831 4.332a5.83 5.83 0 01-2.406 2.448 7.007 7.007 0 01-3.452.874c-2.004 0-3.62-.642-4.854-1.922-1.234-1.278-1.85-3.122-1.85-5.529z" fill="#231F20" clip-rule="evenodd" fill-rule="evenodd"/><path fill="#231F20" d="M109.209 87.564h2.426v19.727h-2.426z"/><path d="M119.641 100.147c0 1.825.4 3.192 1.202 4.099.801.91 1.806 1.365 3.021 1.365 1.204 0 2.206-.458 3.008-1.37.801-.912 1.199-2.304 1.199-4.175 0-1.76-.4-3.098-1.205-4.005-.807-.909-1.809-1.364-3.002-1.364-1.216 0-2.221.452-3.021 1.356-.801.905-1.202 2.269-1.202 4.094m-2.48-.005c0-2.643.733-4.597 2.207-5.869 1.231-1.057 2.726-1.584 4.497-1.584 1.965 0 3.57.645 4.819 1.928 1.245 1.283 1.87 3.057 1.87 5.322 0 1.836-.278 3.279-.828 4.332a5.862 5.862 0 01-2.41 2.448c-1.053.585-2.203.874-3.451.874-2.004 0-3.617-.642-4.854-1.922-1.233-1.278-1.85-3.122-1.85-5.529zm20.463-.249c0 1.874.371 3.235 1.118 4.097.745.858 1.679 1.289 2.803 1.289 1.109 0 2.047-.428 2.799-1.281.759-.857 1.135-2.195 1.135-4.022 0-1.744-.39-3.06-1.167-3.948-.777-.885-1.714-1.329-2.811-1.329-1.077 0-1.992.436-2.745 1.311-.755.87-1.132 2.167-1.132 3.883m-1.985 8.583l2.342.33c.101.726.371 1.254.82 1.584.602.449 1.424.674 2.467.674 1.123 0 1.99-.225 2.602-.671.609-.447 1.023-1.072 1.24-1.876.124-.493.182-1.524.173-3.101-1.059 1.248-2.377 1.874-3.958 1.874-1.966 0-3.49-.71-4.567-2.126-1.077-1.413-1.616-3.113-1.616-5.095 0-1.362.249-2.621.741-3.771.493-1.154 1.208-2.039 2.145-2.67.939-.626 2.039-.939 3.306-.939 1.688 0 3.079.688 4.173 2.065v-1.763h2.233v12.35c0 2.225-.228 3.798-.68 4.727-.452.932-1.172 1.662-2.152 2.201-.98.536-2.19.805-3.622.805-1.703 0-3.079-.382-4.127-1.143-1.049-.767-1.558-1.917-1.52-3.455zm20.886-1.186h-2.427V92.991h2.427zm0-16.974h-2.427v-2.752h2.427zm8.2 8.461h7.966c-.108-1.205-.414-2.104-.915-2.707-.77-.932-1.771-1.4-2.995-1.4-1.109 0-2.044.371-2.802 1.118-.756.745-1.175 1.741-1.254 2.989m7.936 3.883l2.51.33c-.393 1.459-1.123 2.591-2.19 3.397-1.063.805-2.426 1.205-4.08 1.205-2.084 0-3.741-.645-4.96-1.928-1.224-1.283-1.833-3.084-1.833-5.401 0-2.401.615-4.264 1.853-5.591 1.237-1.321 2.84-1.984 4.809-1.984 1.905 0 3.463.649 4.673 1.946 1.205 1.297 1.812 3.125 1.812 5.48 0 .146-.003.357-.014.645h-10.654c.092 1.567.536 2.767 1.332 3.601.796.831 1.79 1.248 2.983 1.248.886 0 1.644-.232 2.27-.701.625-.468 1.123-1.218 1.489-2.247z" fill="#231F20" clip-rule="evenodd" fill-rule="evenodd"/><path d="M179.953 103.021l2.398-.385c.133.961.512 1.697 1.126 2.206.615.515 1.479.77 2.583.77 1.115 0 1.941-.225 2.482-.68.537-.452.811-.985.811-1.592 0-.55-.244-.978-.729-1.292-.336-.214-1.164-.487-2.48-.82-1.771-.446-3-.834-3.685-1.161-.688-.325-1.205-.777-1.56-1.356a3.557 3.557 0 01-.533-1.912c0-.636.146-1.224.438-1.765a3.91 3.91 0 011.188-1.349c.376-.278.891-.515 1.538-.704a7.266 7.266 0 012.09-.292c1.118 0 2.104.162 2.951.487.845.325 1.47.764 1.874 1.318.403.55.682 1.292.831 2.218l-2.366.333c-.108-.747-.42-1.33-.935-1.744-.515-.419-1.24-.628-2.183-.628-1.109 0-1.9.185-2.374.553-.474.368-.712.799-.712 1.291 0 .314.1.593.298.845.194.263.504.477.926.647.241.089.95.298 2.131.617 1.711.457 2.902.831 3.585 1.121.68.292 1.215.715 1.603 1.27.387.555.579 1.245.579 2.068 0 .804-.235 1.565-.706 2.277-.472.709-1.151 1.262-2.042 1.648-.885.39-1.893.585-3.016.585-1.857 0-3.273-.385-4.245-1.153-.974-.771-1.596-1.909-1.866-3.421" fill="#231F20"/></svg>